<svg width="59" height="44" viewBox="0 0 59 44" fill="none" xmlns="http://www.w3.org/2000/svg">
<path d="M14.7863 43.334C10.7283 43.334 7.26153 41.934 4.38611 39.134C1.50891 36.3341 0.0703125 32.9119 0.0703125 28.8675C0.0703125 25.4009 1.11827 22.3121 3.21418 19.601C5.3101 16.8899 8.05262 15.1566 11.4418 14.4011C12.5566 10.3123 14.7863 7.00121 18.1308 4.46791C21.4754 1.93462 25.2659 0.667969 29.5023 0.667969C34.7198 0.667969 39.1453 2.47861 42.7788 6.09989C46.4141 9.72294 48.2317 14.1344 48.2317 19.3344C51.3087 19.6899 53.8622 21.0117 55.8921 23.2996C57.9202 25.5894 58.9343 28.2675 58.9343 31.3342C58.9343 34.6674 57.7641 37.5012 55.4238 39.8354C53.0818 42.1678 50.2385 43.334 46.8939 43.334H32.1779V24.2676L34.586 26.6009C35.0765 27.0898 35.6901 27.3342 36.4268 27.3342C37.1617 27.3342 37.7968 27.0676 38.3319 26.5342C38.8224 26.0454 39.0677 25.4231 39.0677 24.6676C39.0677 23.9121 38.8224 23.2898 38.3319 22.801L31.3752 15.8677C30.8401 15.3344 30.2158 15.0677 29.5023 15.0677C28.7888 15.0677 28.1645 15.3344 27.6293 15.8677L20.6727 22.801C20.1822 23.2898 19.9262 23.9005 19.9048 24.6329C19.8816 25.3671 20.1376 26.0009 20.6727 26.5342C21.1632 27.0231 21.776 27.2791 22.5109 27.3022C23.2475 27.3236 23.8835 27.0898 24.4186 26.6009L26.8267 24.2676V43.334H14.7863Z" fill="#959DB3"/>
</svg>
