<svg width="16" height="16" viewBox="0 0 16 16" fill="none" xmlns="http://www.w3.org/2000/svg">
<path d="M6 6.66797H4.66667V8.0013H6V6.66797ZM8.66667 6.66797H7.33333V8.0013H8.66667V6.66797ZM11.3333 6.66797H10V8.0013H11.3333V6.66797ZM12.6667 2.0013H12V0.667969H10.6667V2.0013H5.33333V0.667969H4V2.0013H3.33333C2.59333 2.0013 2 2.6013 2 3.33464V12.668C2 13.0216 2.14048 13.3607 2.39052 13.6108C2.64057 13.8608 2.97971 14.0013 3.33333 14.0013H12.6667C13.0203 14.0013 13.3594 13.8608 13.6095 13.6108C13.8595 13.3607 14 13.0216 14 12.668V3.33464C14 2.98101 13.8595 2.64187 13.6095 2.39183C13.3594 2.14178 13.0203 2.0013 12.6667 2.0013ZM12.6667 12.668H3.33333V5.33464H12.6667V12.668Z" fill="#373C3F"/>
</svg>
