<svg width="20" height="20" viewBox="0 0 20 20" fill="none" xmlns="http://www.w3.org/2000/svg">
<path d="M14.1667 7.4987H5.83333V5.83203H14.1667V7.4987ZM14.1667 10.832H5.83333V9.16536H14.1667V10.832ZM11.6667 14.1654H5.83333V12.4987H11.6667V14.1654ZM10 2.4987C10.221 2.4987 10.433 2.5865 10.5893 2.74278C10.7455 2.89906 10.8333 3.11102 10.8333 3.33203C10.8333 3.55305 10.7455 3.76501 10.5893 3.92129C10.433 4.07757 10.221 4.16536 10 4.16536C9.77899 4.16536 9.56702 4.07757 9.41074 3.92129C9.25446 3.76501 9.16667 3.55305 9.16667 3.33203C9.16667 3.11102 9.25446 2.89906 9.41074 2.74278C9.56702 2.5865 9.77899 2.4987 10 2.4987ZM15.8333 2.4987H12.35C12 1.53203 11.0833 0.832031 10 0.832031C8.91667 0.832031 8 1.53203 7.65 2.4987H4.16667C3.72464 2.4987 3.30072 2.67429 2.98816 2.98685C2.67559 3.29941 2.5 3.72334 2.5 4.16536V15.832C2.5 16.2741 2.67559 16.698 2.98816 17.0105C3.30072 17.3231 3.72464 17.4987 4.16667 17.4987H15.8333C16.2754 17.4987 16.6993 17.3231 17.0118 17.0105C17.3244 16.698 17.5 16.2741 17.5 15.832V4.16536C17.5 3.72334 17.3244 3.29941 17.0118 2.98685C16.6993 2.67429 16.2754 2.4987 15.8333 2.4987Z" fill="white"/>
</svg>
