<svg width="16" height="16" viewBox="0 0 16 16" fill="none" xmlns="http://www.w3.org/2000/svg">
<mask id="mask0_3365_29296" style="mask-type:alpha" maskUnits="userSpaceOnUse" x="0" y="0" width="16" height="16">
<rect width="16" height="16" fill="#D9D9D9"/>
</mask>
<g mask="url(#mask0_3365_29296)">
<path d="M3.33333 14.6654C2.96667 14.6654 2.65267 14.5349 2.39133 14.274C2.13044 14.0127 2 13.6987 2 13.332V3.9987H3.33333V13.332H10.6667V14.6654H3.33333ZM6 11.9987C5.63333 11.9987 5.31956 11.8683 5.05867 11.6074C4.79733 11.346 4.66667 11.032 4.66667 10.6654V2.66536C4.66667 2.2987 4.79733 1.9847 5.05867 1.72336C5.31956 1.46248 5.63333 1.33203 6 1.33203H12C12.3667 1.33203 12.6807 1.46248 12.942 1.72336C13.2029 1.9847 13.3333 2.2987 13.3333 2.66536V10.6654C13.3333 11.032 13.2029 11.346 12.942 11.6074C12.6807 11.8683 12.3667 11.9987 12 11.9987H6Z" fill="#6B7177"/>
</g>
</svg>
