<svg width="24" height="25" viewBox="0 0 24 25" fill="none" xmlns="http://www.w3.org/2000/svg">
<mask id="mask0_4928_86960" style="mask-type:alpha" maskUnits="userSpaceOnUse" x="0" y="0" width="24" height="25">
<rect y="0.765625" width="24" height="24" fill="#D9D9D9"/>
</mask>
<g mask="url(#mask0_4928_86960)">
<path d="M9 15.0156C8.65 15.0156 8.35417 14.8948 8.1125 14.6531C7.87083 14.4115 7.75 14.1156 7.75 13.7656C7.75 13.4156 7.87083 13.1198 8.1125 12.8781C8.35417 12.6365 8.65 12.5156 9 12.5156C9.35 12.5156 9.64583 12.6365 9.8875 12.8781C10.1292 13.1198 10.25 13.4156 10.25 13.7656C10.25 14.1156 10.1292 14.4115 9.8875 14.6531C9.64583 14.8948 9.35 15.0156 9 15.0156ZM15 15.0156C14.65 15.0156 14.3542 14.8948 14.1125 14.6531C13.8708 14.4115 13.75 14.1156 13.75 13.7656C13.75 13.4156 13.8708 13.1198 14.1125 12.8781C14.3542 12.6365 14.65 12.5156 15 12.5156C15.35 12.5156 15.6458 12.6365 15.8875 12.8781C16.1292 13.1198 16.25 13.4156 16.25 13.7656C16.25 14.1156 16.1292 14.4115 15.8875 14.6531C15.6458 14.8948 15.35 15.0156 15 15.0156ZM12 20.7656C14.2333 20.7656 16.125 19.9906 17.675 18.4406C19.225 16.8906 20 14.999 20 12.7656C20 12.3656 19.975 11.9781 19.925 11.6031C19.875 11.2281 19.7833 10.8656 19.65 10.5156C19.3 10.599 18.95 10.6615 18.6 10.7031C18.25 10.7448 17.8833 10.7656 17.5 10.7656C15.9833 10.7656 14.55 10.4406 13.2 9.79063C11.85 9.14062 10.7 8.23229 9.75 7.06563C9.21667 8.36563 8.45417 9.49479 7.4625 10.4531C6.47083 11.4115 5.31667 12.1323 4 12.6156V12.7656C4 14.999 4.775 16.8906 6.325 18.4406C7.875 19.9906 9.76667 20.7656 12 20.7656ZM12 22.7656C10.6167 22.7656 9.31667 22.5031 8.1 21.9781C6.88333 21.4531 5.825 20.7406 4.925 19.8406C4.025 18.9406 3.3125 17.8823 2.7875 16.6656C2.2625 15.449 2 14.149 2 12.7656C2 11.3823 2.2625 10.0823 2.7875 8.86562C3.3125 7.64896 4.025 6.59063 4.925 5.69062C5.825 4.79062 6.88333 4.07812 8.1 3.55313C9.31667 3.02812 10.6167 2.76562 12 2.76562C13.3833 2.76562 14.6833 3.02812 15.9 3.55313C17.1167 4.07812 18.175 4.79062 19.075 5.69062C19.975 6.59063 20.6875 7.64896 21.2125 8.86562C21.7375 10.0823 22 11.3823 22 12.7656C22 14.149 21.7375 15.449 21.2125 16.6656C20.6875 17.8823 19.975 18.9406 19.075 19.8406C18.175 20.7406 17.1167 21.4531 15.9 21.9781C14.6833 22.5031 13.3833 22.7656 12 22.7656Z" fill="#6B7177"/>
</g>
</svg>
