<?xml version="1.0" encoding="iso-8859-1"?>
<!-- Generator: Adobe Illustrator 19.0.0, SVG Export Plug-In . SVG Version: 6.00 Build 0)  -->
<svg version="1.1" id="Capa_1" xmlns="http://www.w3.org/2000/svg" xmlns:xlink="http://www.w3.org/1999/xlink" x="0px" y="0px"
	 viewBox="0 0 512 512" style="enable-background:new 0 0 512 512;" xml:space="preserve">
<path style="fill:#F2F2F2;" d="M45.52,469.333V42.667C45.52,19.104,64.624,0,88.187,0h273.269L466.48,105.024v364.309
	c0,23.563-19.104,42.667-42.667,42.667H88.187C64.624,512,45.52,492.896,45.52,469.333"/>
<g>
	<rect x="88.187" y="440.96" style="fill:#CDD6E0;" width="335.627" height="28.395"/>
	<rect x="88.187" y="365.013" style="fill:#CDD6E0;" width="335.627" height="28.395"/>
	<rect x="88.187" y="289.067" style="fill:#CDD6E0;" width="335.627" height="28.395"/>
	<rect x="88.187" y="213.067" style="fill:#CDD6E0;" width="335.627" height="28.395"/>
	<rect x="229.328" y="137.109" style="fill:#CDD6E0;" width="194.496" height="28.395"/>
	<rect x="229.328" y="61.152" style="fill:#CDD6E0;" width="80.192" height="28.395"/>
	<path style="fill:#CDD6E0;" d="M361.456,0L466.48,105.024h-62.357c-23.563,0-42.667-19.104-42.667-42.667V0z"/>
</g>
<path style="fill:#84DBFF;" d="M132.645,189.717v-13.867c-16.085-2.539-30.891-9.824-44.459-21.856l17.664-21.483
	c9.877,8.619,18.816,14.133,26.795,16.533v-28.32c-13.312-3.413-23.061-8.011-29.269-13.781c-6.219-5.749-9.323-14.059-9.323-24.885
	c0-10.837,3.541-19.765,10.645-26.795c7.104-7.04,16.395-11.243,27.936-12.64v-9.312h20.149v9.696
	c12.672,1.771,25.269,7.019,37.835,15.765l-15.605,22.421c-7.957-5.685-15.392-9.493-22.229-11.392v27.371
	c13.685,3.541,23.787,8.288,30.315,14.24s9.792,14.389,9.792,25.291c0,10.891-3.648,19.893-10.933,26.976
	c-7.275,7.093-17.003,11.349-29.163,12.736v13.301H132.645z M132.645,69.035c-5.44,1.909-8.171,5.387-8.171,10.464
	c0,5.067,2.731,8.917,8.171,11.584V69.035z M162.469,138.219c0-2.656-0.683-4.875-2.08-6.645c-1.397-1.781-3.915-3.424-7.605-4.949
	v23.381C159.248,147.979,162.469,144.053,162.469,138.219"/>
<g>
</g>
<g>
</g>
<g>
</g>
<g>
</g>
<g>
</g>
<g>
</g>
<g>
</g>
<g>
</g>
<g>
</g>
<g>
</g>
<g>
</g>
<g>
</g>
<g>
</g>
<g>
</g>
<g>
</g>
</svg>
