<svg width="17" height="16" viewBox="0 0 17 16" fill="none" xmlns="http://www.w3.org/2000/svg">
<path d="M8.49967 7.66536C8.05765 7.66536 7.63372 7.48977 7.32116 7.17721C7.0086 6.86465 6.83301 6.44073 6.83301 5.9987C6.83301 5.55667 7.0086 5.13275 7.32116 4.82019C7.63372 4.50763 8.05765 4.33203 8.49967 4.33203C8.9417 4.33203 9.36563 4.50763 9.67819 4.82019C9.99075 5.13275 10.1663 5.55667 10.1663 5.9987C10.1663 6.21757 10.1232 6.43429 10.0395 6.6365C9.95572 6.83871 9.83295 7.02245 9.67819 7.17721C9.52342 7.33197 9.33969 7.45474 9.13748 7.5385C8.93527 7.62226 8.71854 7.66536 8.49967 7.66536ZM8.49967 1.33203C7.262 1.33203 6.07501 1.8237 5.19984 2.69887C4.32467 3.57404 3.83301 4.76102 3.83301 5.9987C3.83301 9.4987 8.49967 14.6654 8.49967 14.6654C8.49967 14.6654 13.1663 9.4987 13.1663 5.9987C13.1663 4.76102 12.6747 3.57404 11.7995 2.69887C10.9243 1.8237 9.73735 1.33203 8.49967 1.33203Z" fill="#373C3F"/>
</svg>
