<svg width="20" height="20" viewBox="0 0 20 20" fill="none" xmlns="http://www.w3.org/2000/svg">
<g id="Pencil">
<path id="Icon" d="M16.8898 3.11019L17.5969 2.40309V2.40309L16.8898 3.11019ZM5.41673 17.5296V18.5296C5.68194 18.5296 5.9363 18.4242 6.12383 18.2367L5.41673 17.5296ZM2.50006 17.5296H1.50006C1.50006 18.0819 1.94778 18.5296 2.50006 18.5296V17.5296ZM2.50006 14.5537L1.79295 13.8466C1.60542 14.0341 1.50006 14.2885 1.50006 14.5537H2.50006ZM14.6507 3.8173C15.0737 3.39423 15.7596 3.39423 16.1827 3.8173L17.5969 2.40309C16.3928 1.19897 14.4406 1.19897 13.2364 2.40309L14.6507 3.8173ZM16.1827 3.8173C16.6058 4.24037 16.6058 4.9263 16.1827 5.34937L17.5969 6.76358C18.801 5.55946 18.801 3.6072 17.5969 2.40309L16.1827 3.8173ZM16.1827 5.34937L4.70962 16.8225L6.12383 18.2367L17.5969 6.76358L16.1827 5.34937ZM5.41673 16.5296H2.50006V18.5296H5.41673V16.5296ZM13.2364 2.40309L1.79295 13.8466L3.20717 15.2608L14.6507 3.8173L13.2364 2.40309ZM1.50006 14.5537V17.5296H3.50006V14.5537H1.50006ZM11.9864 5.0673L14.9327 8.01358L16.3469 6.59937L13.4007 3.65309L11.9864 5.0673Z" fill="#009DCC"/>
</g>
</svg>
