<svg width="20" height="20" viewBox="0 0 20 20" fill="none" xmlns="http://www.w3.org/2000/svg">
<mask id="mask0_3537_14604" style="mask-type:alpha" maskUnits="userSpaceOnUse" x="0" y="0" width="20" height="20">
<rect width="20" height="20" fill="#D9D9D9"/>
</mask>
<g mask="url(#mask0_3537_14604)">
<path d="M9.1665 18.2904C8.11095 18.1793 7.12845 17.8912 6.219 17.4262C5.309 16.9606 4.51734 16.3562 3.844 15.6129C3.17011 14.8701 2.63873 14.0195 2.24984 13.0612C1.86095 12.1029 1.6665 11.082 1.6665 9.9987C1.6665 8.73481 1.92012 7.56814 2.42734 6.4987C2.934 5.42925 3.62484 4.51259 4.49984 3.7487H2.49984V2.08203H7.49984V7.08203H5.83317V4.8112C5.06928 5.42231 4.4615 6.17592 4.00984 7.07203C3.55873 7.96759 3.33317 8.94314 3.33317 9.9987C3.33317 11.707 3.89234 13.1826 5.01067 14.4254C6.12845 15.6687 7.51373 16.3945 9.1665 16.6029V18.2904ZM12.4998 17.9154V12.9154H14.1665V15.1862C14.9304 14.5612 15.5382 13.8043 15.9898 12.9154C16.4409 12.0265 16.6665 11.0543 16.6665 9.9987C16.6665 8.29036 16.1076 6.81453 14.9898 5.5712C13.8715 4.32842 12.4859 3.60286 10.8332 3.39453V1.70703C12.9443 1.91536 14.7221 2.80425 16.1665 4.3737C17.6109 5.94314 18.3332 7.81814 18.3332 9.9987C18.3332 11.2626 18.0796 12.4293 17.5723 13.4987C17.0657 14.5681 16.3748 15.4848 15.4998 16.2487H17.4998V17.9154H12.4998Z" fill="white"/>
</g>
</svg>
