<svg width="64" height="64" viewBox="0 0 64 64" fill="none" xmlns="http://www.w3.org/2000/svg">
<mask id="mask0_4680_85007" style="mask-type:alpha" maskUnits="userSpaceOnUse" x="0" y="0" width="64" height="64">
<rect width="64" height="64" fill="#D9D9D9"/>
</mask>
<g mask="url(#mask0_4680_85007)">
<path d="M24.6678 58.6615L23.6012 50.1281C23.0234 49.9059 22.4789 49.6392 21.9678 49.3281C21.4567 49.017 20.9567 48.6837 20.4678 48.3281L12.5345 51.6615L5.20117 38.9948L12.0678 33.7948C12.0234 33.4837 12.0012 33.1837 12.0012 32.8948V31.0948C12.0012 30.8059 12.0234 30.5059 12.0678 30.1948L5.20117 24.9948L12.5345 12.3281L20.4678 15.6615C20.9567 15.3059 21.4678 14.9726 22.0012 14.6615C22.5345 14.3503 23.0678 14.0837 23.6012 13.8615L24.6678 5.32812H39.3345L40.4012 13.8615C40.9789 14.0837 41.5234 14.3503 42.0345 14.6615C42.5456 14.9726 43.0456 15.3059 43.5345 15.6615L51.4678 12.3281L58.8012 24.9948L51.9345 30.1948C51.9789 30.5059 52.0012 30.8059 52.0012 31.0948V32.8948C52.0012 33.1837 51.9567 33.4837 51.8678 33.7948L58.7345 38.9948L51.4012 51.6615L43.5345 48.3281C43.0456 48.6837 42.5345 49.017 42.0012 49.3281C41.4678 49.6392 40.9345 49.9059 40.4012 50.1281L39.3345 58.6615H24.6678ZM32.1345 41.3281C34.7123 41.3281 36.9123 40.417 38.7345 38.5948C40.5567 36.7726 41.4678 34.5726 41.4678 31.9948C41.4678 29.417 40.5567 27.217 38.7345 25.3948C36.9123 23.5726 34.7123 22.6615 32.1345 22.6615C29.5123 22.6615 27.3012 23.5726 25.5012 25.3948C23.7012 27.217 22.8012 29.417 22.8012 31.9948C22.8012 34.5726 23.7012 36.7726 25.5012 38.5948C27.3012 40.417 29.5123 41.3281 32.1345 41.3281ZM32.1345 35.9948C31.0234 35.9948 30.0789 35.6059 29.3012 34.8281C28.5234 34.0503 28.1345 33.1059 28.1345 31.9948C28.1345 30.8837 28.5234 29.9392 29.3012 29.1615C30.0789 28.3837 31.0234 27.9948 32.1345 27.9948C33.2456 27.9948 34.1901 28.3837 34.9678 29.1615C35.7456 29.9392 36.1345 30.8837 36.1345 31.9948C36.1345 33.1059 35.7456 34.0503 34.9678 34.8281C34.1901 35.6059 33.2456 35.9948 32.1345 35.9948ZM29.3345 53.3281H34.6012L35.5345 46.2615C36.9123 45.9059 38.1901 45.3837 39.3678 44.6948C40.5456 44.0059 41.6234 43.1726 42.6012 42.1948L49.2012 44.9281L51.8012 40.3948L46.0678 36.0615C46.2901 35.4392 46.4456 34.7837 46.5345 34.0948C46.6234 33.4059 46.6678 32.7059 46.6678 31.9948C46.6678 31.2837 46.6234 30.5837 46.5345 29.8948C46.4456 29.2059 46.2901 28.5503 46.0678 27.9281L51.8012 23.5948L49.2012 19.0615L42.6012 21.8615C41.6234 20.8392 40.5456 19.9837 39.3678 19.2948C38.1901 18.6059 36.9123 18.0837 35.5345 17.7281L34.6678 10.6615H29.4012L28.4678 17.7281C27.0901 18.0837 25.8123 18.6059 24.6345 19.2948C23.4567 19.9837 22.379 20.817 21.4012 21.7948L14.8012 19.0615L12.2012 23.5948L17.9345 27.8615C17.7123 28.5281 17.5567 29.1948 17.4678 29.8615C17.3789 30.5281 17.3345 31.2392 17.3345 31.9948C17.3345 32.7059 17.3789 33.3948 17.4678 34.0615C17.5567 34.7281 17.7123 35.3948 17.9345 36.0615L12.2012 40.3948L14.8012 44.9281L21.4012 42.1281C22.379 43.1503 23.4567 44.0059 24.6345 44.6948C25.8123 45.3837 27.0901 45.9059 28.4678 46.2615L29.3345 53.3281Z" fill="#FFF7E6"/>
</g>
</svg>
