<svg width="4" height="12" viewBox="0 0 4 12" fill="none" xmlns="http://www.w3.org/2000/svg">
<path d="M2.00033 8.66797C2.35395 8.66797 2.69309 8.80844 2.94313 9.05849C3.19318 9.30854 3.33366 9.64768 3.33366 10.0013C3.33366 10.3549 3.19318 10.6941 2.94313 10.9441C2.69309 11.1942 2.35395 11.3346 2.00033 11.3346C1.6467 11.3346 1.30757 11.1942 1.05752 10.9441C0.807468 10.6941 0.666992 10.3549 0.666992 10.0013C0.666992 9.64768 0.807468 9.30854 1.05752 9.05849C1.30757 8.80844 1.6467 8.66797 2.00033 8.66797ZM2.00033 4.66797C2.35395 4.66797 2.69309 4.80844 2.94313 5.05849C3.19318 5.30854 3.33366 5.64768 3.33366 6.0013C3.33366 6.35492 3.19318 6.69406 2.94313 6.94411C2.69309 7.19416 2.35395 7.33463 2.00033 7.33463C1.6467 7.33463 1.30757 7.19416 1.05752 6.94411C0.807468 6.69406 0.666992 6.35492 0.666992 6.0013C0.666992 5.64768 0.807468 5.30854 1.05752 5.05849C1.30757 4.80844 1.6467 4.66797 2.00033 4.66797ZM2.00033 0.667969C2.35395 0.667969 2.69309 0.808444 2.94313 1.05849C3.19318 1.30854 3.33366 1.64768 3.33366 2.0013C3.33366 2.35492 3.19318 2.69406 2.94313 2.94411C2.69309 3.19416 2.35395 3.33464 2.00033 3.33464C1.6467 3.33464 1.30757 3.19416 1.05752 2.94411C0.807468 2.69406 0.666992 2.35492 0.666992 2.0013C0.666992 1.64768 0.807468 1.30854 1.05752 1.05849C1.30757 0.808444 1.6467 0.667969 2.00033 0.667969Z" fill="#373C3F"/>
</svg>
