<svg width="16" height="18" viewBox="0 0 16 18" fill="none" xmlns="http://www.w3.org/2000/svg">
<path d="M12.1667 7.4987H3.83333V5.83203H12.1667V7.4987ZM12.1667 10.832H3.83333V9.16536H12.1667V10.832ZM9.66667 14.1654H3.83333V12.4987H9.66667V14.1654ZM8 2.4987C8.22101 2.4987 8.43297 2.5865 8.58926 2.74278C8.74554 2.89906 8.83333 3.11102 8.83333 3.33203C8.83333 3.55304 8.74554 3.76501 8.58926 3.92129C8.43297 4.07757 8.22101 4.16536 8 4.16536C7.77899 4.16536 7.56702 4.07757 7.41074 3.92129C7.25446 3.76501 7.16667 3.55304 7.16667 3.33203C7.16667 3.11102 7.25446 2.89906 7.41074 2.74278C7.56702 2.5865 7.77899 2.4987 8 2.4987V2.4987ZM13.8333 2.4987H10.35C10 1.53203 9.08333 0.832031 8 0.832031C6.91667 0.832031 6 1.53203 5.65 2.4987H2.16667C1.72464 2.4987 1.30072 2.67429 0.988155 2.98685C0.675595 3.29941 0.5 3.72334 0.5 4.16536V15.832C0.5 16.2741 0.675595 16.698 0.988155 17.0105C1.30072 17.3231 1.72464 17.4987 2.16667 17.4987H13.8333C14.2754 17.4987 14.6993 17.3231 15.0118 17.0105C15.3244 16.698 15.5 16.2741 15.5 15.832V4.16536C15.5 3.72334 15.3244 3.29941 15.0118 2.98685C14.6993 2.67429 14.2754 2.4987 13.8333 2.4987Z" fill="#373C3F"/>
</svg>
