<svg xmlns="http://www.w3.org/2000/svg" width="63.943" height="14.173" viewBox="0 0 63.943 14.173">
  <g id="logo" transform="translate(-503.478 -799.395)">
    <g id="Layer_1-2" data-name="Layer 1-2">
      <path id="Path_2492" data-name="Path 2492" d="M525.908,811.671v-6.847h-2.69a1.15,1.15,0,0,1,1.15-1.15h5.523a1.15,1.15,0,0,1-1.15,1.15h-1.547v6.847Z" fill="#fff"/>
      <path id="Path_2493" data-name="Path 2493" d="M530.491,811.671v-8h5.259a1.15,1.15,0,0,1-1.15,1.15h-2.825v2.048h2.99v1.115h-2.99v2.534h2.969a1.15,1.15,0,0,1,1.152,1.148v0Z" fill="#fff"/>
      <path id="Path_2494" data-name="Path 2494" d="M536.344,811.671v-8h0a1.285,1.285,0,0,1,1.285,1.284v6.713Zm2.932-4.253,3.681,4.253h-1.182a.887.887,0,0,1-.671-.307l-3.438-3.946,3.09-3.448a.889.889,0,0,1,.663-.3H542.6Z" fill="#fff"/>
      <path id="Path_2495" data-name="Path 2495" d="M543.19,811.671v-8h0a1.284,1.284,0,0,1,1.285,1.284v6.713Zm2.933-4.253,3.681,4.253h-1.183a.885.885,0,0,1-.67-.307l-3.439-3.946,3.091-3.448a.887.887,0,0,1,.659-.3h1.178Z" fill="#fff"/>
      <path id="Path_2496" data-name="Path 2496" d="M550.037,811.671v-8H555.3a1.15,1.15,0,0,1-1.15,1.15H551.33v2.048h2.992v1.115H551.33v2.534h2.96a1.149,1.149,0,0,1,1.151,1.148v0Z" fill="#fff"/>
      <path id="Path_2497" data-name="Path 2497" d="M562.336,803.674l-2.761,4.774v3.221H558.29v-3.221l-2.761-4.774h.911a.89.89,0,0,1,.774.449l1.72,3.028,1.731-3.029a.89.89,0,0,1,.767-.448Z" fill="#fff"/>
      <path id="Path_2498" data-name="Path 2498" d="M561.71,810.079l.234-.178a.872.872,0,0,1,1.134.044,2.263,2.263,0,0,0,1.638.717,1.561,1.561,0,0,0,1-.307.985.985,0,0,0,.382-.811.847.847,0,0,0-.255-.649,3.942,3.942,0,0,0-.92-.552l-.885-.411a4.228,4.228,0,0,1-1.4-.939,1.838,1.838,0,0,1-.46-1.279,1.935,1.935,0,0,1,.727-1.563,2.7,2.7,0,0,1,1.792-.606,3.022,3.022,0,0,1,1.51.384,2.753,2.753,0,0,1,1.073,1.041l-.247.19a.867.867,0,0,1-1.093-.009,1.839,1.839,0,0,0-1.241-.46,1.424,1.424,0,0,0-.873.254.848.848,0,0,0-.339.715,1.5,1.5,0,0,0,.056.358.648.648,0,0,0,.224.291,1.494,1.494,0,0,0,.254.187l.472.244a.72.72,0,0,1,.109.06l.9.412a4.306,4.306,0,0,1,1.46.982,1.908,1.908,0,0,1,.46,1.3,2.094,2.094,0,0,1-.758,1.673,2.856,2.856,0,0,1-1.92.641,3.42,3.42,0,0,1-1.758-.46A3.473,3.473,0,0,1,561.71,810.079Z" fill="#fff"/>
      <path id="Path_2499" data-name="Path 2499" d="M520.2,805.7a.154.154,0,0,1,.154.153,7.494,7.494,0,0,1-1.175,3.732l-.016.026c-.135.206-.279.406-.432.6a4.639,4.639,0,0,1-1.914,1.348.062.062,0,0,0-.026.009c-.074.023-.144.046-.217.072h-.01a7.445,7.445,0,0,0-2.25,1.264,7.152,7.152,0,0,0-.68.623.144.144,0,0,1-.248-.1v-.405a7.489,7.489,0,0,1,6.221-7.235A5.359,5.359,0,0,1,520.2,805.7Zm-16.564,0a.153.153,0,0,0-.153.153,7.447,7.447,0,0,0,1.174,3.732l.016.026q.2.309.432.6a4.627,4.627,0,0,0,1.9,1.346.116.116,0,0,1,.026.009c.074.023.143.046.215.073a.023.023,0,0,0,.012,0,7.405,7.405,0,0,1,2.249,1.263,7.3,7.3,0,0,1,.681.623.144.144,0,0,0,.2.005.146.146,0,0,0,.044-.1v-.4a7.488,7.488,0,0,0-6.222-7.233A5.568,5.568,0,0,0,503.631,805.7Zm8.282-6.3a2.866,2.866,0,1,0,2.86,2.873v-.011A2.866,2.866,0,0,0,511.913,799.4Z" fill="#fff"/>
    </g>
  </g>
</svg>
