<svg xmlns="http://www.w3.org/2000/svg" width="6.968" height="6.968" viewBox="0 0 6.968 6.968">
  <path id="Path_2503" data-name="Path 2503" d="M390.7,243.573a4.371,4.371,0,0,1-1.381-.221.4.4,0,0,0-.395.093l-.852.852a5.834,5.834,0,0,1-2.551-2.551l.852-.856a.373.373,0,0,0,.1-.387,4.373,4.373,0,0,1-.221-1.382.389.389,0,0,0-.387-.387h-1.355a.389.389,0,0,0-.387.387,6.58,6.58,0,0,0,6.58,6.581.389.389,0,0,0,.388-.387V243.96A.389.389,0,0,0,390.7,243.573Zm.388-3.677h-1.162v-1.162h-.774V239.9h-1.161v.774h1.161v1.161h.774V240.67h1.162Z" transform="translate(-384.118 -238.734)" fill="#013382"/>
</svg>
