<svg width="54" height="54" viewBox="0 0 54 54" fill="none" xmlns="http://www.w3.org/2000/svg">
<path d="M17.4 40.2852L27 30.6852L36.6 40.2852L40.3334 36.5518L30.7334 26.9518L40.3334 17.3518L36.6 13.6185L27 23.2185L17.4 13.6185L13.6667 17.3518L23.2667 26.9518L13.6667 36.5518L17.4 40.2852ZM27 53.6185C23.3112 53.6185 19.8445 52.918 16.6 51.5172C13.3556 50.118 10.5334 48.2185 8.13337 45.8185C5.73337 43.4185 3.83382 40.5963 2.43471 37.3518C1.03382 34.1074 0.333374 30.6407 0.333374 26.9518C0.333374 23.2629 1.03382 19.7963 2.43471 16.5518C3.83382 13.3074 5.73337 10.4852 8.13337 8.08516C10.5334 5.68516 13.3556 3.78471 16.6 2.38382C19.8445 0.984712 23.3112 0.285156 27 0.285156C30.6889 0.285156 34.1556 0.984712 37.4 2.38382C40.6445 3.78471 43.4667 5.68516 45.8667 8.08516C48.2667 10.4852 50.1663 13.3074 51.5654 16.5518C52.9663 19.7963 53.6667 23.2629 53.6667 26.9518C53.6667 30.6407 52.9663 34.1074 51.5654 37.3518C50.1663 40.5963 48.2667 43.4185 45.8667 45.8185C43.4667 48.2185 40.6445 50.118 37.4 51.5172C34.1556 52.918 30.6889 53.6185 27 53.6185Z" fill="#FF0A22"/>
</svg>
