<svg width="283" height="48" viewBox="0 0 283 48" fill="none" xmlns="http://www.w3.org/2000/svg">
<g filter="url(#filter0_d_3402_76000)">
<rect x="4" y="3" width="275" height="40" rx="4" fill="#373C3F"/>
<path d="M51.8327 23.8346H46.8327V28.8346H45.166V23.8346H40.166V22.168H45.166V17.168H46.8327V22.168H51.8327V23.8346Z" fill="white"/>
<path d="M67.5551 22.88L67.3311 23.72H69.2771L69.0671 22.88C68.9458 22.4227 68.8198 21.9373 68.6891 21.424C68.5678 20.9107 68.4464 20.416 68.3251 19.94H68.2691C68.1571 20.4253 68.0404 20.9247 67.9191 21.438C67.8071 21.942 67.6858 22.4227 67.5551 22.88ZM64.2511 27.5L67.1071 18.372H69.5851L72.4411 27.5H70.2571L69.6971 25.33H66.9111L66.3511 27.5H64.2511ZM75.9445 27.668C75.2538 27.668 74.6705 27.5327 74.1945 27.262C73.7185 26.982 73.3218 26.5667 73.0045 26.016L74.4045 24.98C74.5725 25.288 74.7685 25.5167 74.9925 25.666C75.2165 25.8153 75.4452 25.89 75.6785 25.89C76.0518 25.89 76.3318 25.778 76.5185 25.554C76.7145 25.3207 76.8125 24.9007 76.8125 24.294V18.372H78.8705V24.462C78.8705 25.05 78.7678 25.5867 78.5625 26.072C78.3572 26.5573 78.0352 26.9447 77.5965 27.234C77.1672 27.5233 76.6165 27.668 75.9445 27.668ZM85.1116 27.668C84.2902 27.668 83.5669 27.4767 82.9416 27.094C82.3256 26.7113 81.8402 26.1653 81.4856 25.456C81.1402 24.7373 80.9676 23.8833 80.9676 22.894C80.9676 21.8953 81.1402 21.0507 81.4856 20.36C81.8402 19.66 82.3256 19.128 82.9416 18.764C83.5669 18.3907 84.2902 18.204 85.1116 18.204C85.9329 18.204 86.6516 18.3907 87.2676 18.764C87.8929 19.128 88.3782 19.66 88.7236 20.36C89.0782 21.06 89.2556 21.9047 89.2556 22.894C89.2556 23.8833 89.0782 24.7373 88.7236 25.456C88.3782 26.1653 87.8929 26.7113 87.2676 27.094C86.6516 27.4767 85.9329 27.668 85.1116 27.668ZM85.1116 25.89C85.7369 25.89 86.2316 25.6193 86.5956 25.078C86.9596 24.5367 87.1416 23.8087 87.1416 22.894C87.1416 21.9793 86.9596 21.2653 86.5956 20.752C86.2316 20.2387 85.7369 19.982 85.1116 19.982C84.4862 19.982 83.9916 20.2387 83.6276 20.752C83.2636 21.2653 83.0816 21.9793 83.0816 22.894C83.0816 23.8087 83.2636 24.5367 83.6276 25.078C83.9916 25.6193 84.4862 25.89 85.1116 25.89ZM94.9899 27.668C93.8045 27.668 92.8992 27.318 92.2739 26.618C91.6485 25.918 91.3359 24.8027 91.3359 23.272V18.372H93.4079V23.482C93.4079 24.378 93.5432 25.0033 93.8139 25.358C94.0845 25.7127 94.4765 25.89 94.9899 25.89C95.5032 25.89 95.8999 25.7127 96.1799 25.358C96.4599 25.0033 96.5999 24.378 96.5999 23.482V18.372H98.5879V23.272C98.5879 24.8027 98.2799 25.918 97.6639 26.618C97.0572 27.318 96.1659 27.668 94.9899 27.668ZM102.9 27.5V20.108H100.394V18.372H107.478V20.108H104.972V27.5H102.9ZM109.322 27.5V18.372H115.034V20.108H111.38V21.942H114.488V23.664H111.38V25.764H115.174V27.5H109.322ZM117.412 27.5V18.372H120.702C121.346 18.372 121.934 18.4607 122.466 18.638C122.998 18.806 123.422 19.0953 123.74 19.506C124.057 19.9167 124.216 20.486 124.216 21.214C124.216 21.886 124.066 22.4413 123.768 22.88C123.478 23.3093 123.086 23.6313 122.592 23.846L124.664 27.5H122.354L120.604 24.21H119.47V27.5H117.412ZM119.47 22.572H120.534C121.075 22.572 121.486 22.46 121.766 22.236C122.055 22.0027 122.2 21.662 122.2 21.214C122.2 20.766 122.055 20.4533 121.766 20.276C121.486 20.0987 121.075 20.01 120.534 20.01H119.47V22.572ZM133.238 27.668C132.053 27.668 131.148 27.318 130.522 26.618C129.897 25.918 129.584 24.8027 129.584 23.272V18.372H131.656V23.482C131.656 24.378 131.792 25.0033 132.062 25.358C132.333 25.7127 132.725 25.89 133.238 25.89C133.752 25.89 134.148 25.7127 134.428 25.358C134.708 25.0033 134.848 24.378 134.848 23.482V18.372H136.836V23.272C136.836 24.8027 136.528 25.918 135.912 26.618C135.306 27.318 134.414 27.668 133.238 27.668ZM139.371 27.5V18.372H141.485L143.865 22.908L144.761 24.924H144.817C144.78 24.4387 144.728 23.8973 144.663 23.3C144.598 22.7027 144.565 22.1333 144.565 21.592V18.372H146.525V27.5H144.411L142.031 22.95L141.135 20.962H141.079C141.126 21.466 141.177 22.0073 141.233 22.586C141.298 23.1647 141.331 23.7247 141.331 24.266V27.5H139.371ZM156.132 27.668C155.367 27.668 154.662 27.4907 154.018 27.136C153.374 26.7813 152.856 26.2587 152.464 25.568C152.081 24.868 151.89 24.0093 151.89 22.992C151.89 21.984 152.086 21.1253 152.478 20.416C152.879 19.6973 153.407 19.1513 154.06 18.778C154.723 18.3953 155.437 18.204 156.202 18.204C156.79 18.204 157.317 18.3253 157.784 18.568C158.251 18.8013 158.638 19.0767 158.946 19.394L157.854 20.71C157.621 20.4953 157.373 20.3227 157.112 20.192C156.86 20.052 156.571 19.982 156.244 19.982C155.833 19.982 155.455 20.0987 155.11 20.332C154.774 20.5653 154.503 20.9013 154.298 21.34C154.102 21.7787 154.004 22.306 154.004 22.922C154.004 23.8553 154.205 24.5833 154.606 25.106C155.007 25.6287 155.544 25.89 156.216 25.89C156.589 25.89 156.921 25.806 157.21 25.638C157.509 25.47 157.77 25.2693 157.994 25.036L159.086 26.324C158.321 27.22 157.336 27.668 156.132 27.668ZM164.083 27.668C163.262 27.668 162.538 27.4767 161.913 27.094C161.297 26.7113 160.812 26.1653 160.457 25.456C160.112 24.7373 159.939 23.8833 159.939 22.894C159.939 21.8953 160.112 21.0507 160.457 20.36C160.812 19.66 161.297 19.128 161.913 18.764C162.538 18.3907 163.262 18.204 164.083 18.204C164.904 18.204 165.623 18.3907 166.239 18.764C166.864 19.128 167.35 19.66 167.695 20.36C168.05 21.06 168.227 21.9047 168.227 22.894C168.227 23.8833 168.05 24.7373 167.695 25.456C167.35 26.1653 166.864 26.7113 166.239 27.094C165.623 27.4767 164.904 27.668 164.083 27.668ZM164.083 25.89C164.708 25.89 165.203 25.6193 165.567 25.078C165.931 24.5367 166.113 23.8087 166.113 22.894C166.113 21.9793 165.931 21.2653 165.567 20.752C165.203 20.2387 164.708 19.982 164.083 19.982C163.458 19.982 162.963 20.2387 162.599 20.752C162.235 21.2653 162.053 21.9793 162.053 22.894C162.053 23.8087 162.235 24.5367 162.599 25.078C162.963 25.6193 163.458 25.89 164.083 25.89ZM170.363 27.5V18.372H172.617L174.087 22.432C174.181 22.6933 174.269 22.9687 174.353 23.258C174.437 23.5473 174.526 23.832 174.619 24.112H174.675C174.769 23.832 174.853 23.5473 174.927 23.258C175.011 22.9687 175.1 22.6933 175.193 22.432L176.635 18.372H178.875V27.5H176.999V24.154C176.999 23.8553 177.013 23.524 177.041 23.16C177.079 22.7867 177.116 22.4133 177.153 22.04C177.2 21.6667 177.237 21.3353 177.265 21.046H177.209L176.467 23.216L175.165 26.702H174.031L172.729 23.216L172.001 21.046H171.945C171.983 21.3353 172.02 21.6667 172.057 22.04C172.095 22.4133 172.127 22.7867 172.155 23.16C172.193 23.524 172.211 23.8553 172.211 24.154V27.5H170.363ZM181.447 27.5V18.372H183.701L185.171 22.432C185.265 22.6933 185.353 22.9687 185.437 23.258C185.521 23.5473 185.61 23.832 185.703 24.112H185.759C185.853 23.832 185.937 23.5473 186.011 23.258C186.095 22.9687 186.184 22.6933 186.277 22.432L187.719 18.372H189.959V27.5H188.083V24.154C188.083 23.8553 188.097 23.524 188.125 23.16C188.163 22.7867 188.2 22.4133 188.237 22.04C188.284 21.6667 188.321 21.3353 188.349 21.046H188.293L187.551 23.216L186.249 26.702H185.115L183.813 23.216L183.085 21.046H183.029C183.067 21.3353 183.104 21.6667 183.141 22.04C183.179 22.4133 183.211 22.7867 183.239 23.16C183.277 23.524 183.295 23.8553 183.295 24.154V27.5H181.447ZM192.531 27.5V18.372H198.243V20.108H194.589V21.942H197.697V23.664H194.589V25.764H198.383V27.5H192.531ZM200.621 27.5V18.372H202.735L205.115 22.908L206.011 24.924H206.067C206.03 24.4387 205.979 23.8973 205.913 23.3C205.848 22.7027 205.815 22.1333 205.815 21.592V18.372H207.775V27.5H205.661L203.281 22.95L202.385 20.962H202.329C202.376 21.466 202.427 22.0073 202.483 22.586C202.549 23.1647 202.581 23.7247 202.581 24.266V27.5H200.621ZM212.13 27.5V20.108H209.624V18.372H216.708V20.108H214.202V27.5H212.13ZM220.133 22.88L219.909 23.72H221.855L221.645 22.88C221.523 22.4227 221.397 21.9373 221.267 21.424C221.145 20.9107 221.024 20.416 220.903 19.94H220.847C220.735 20.4253 220.618 20.9247 220.497 21.438C220.385 21.942 220.263 22.4227 220.133 22.88ZM216.829 27.5L219.685 18.372H222.163L225.019 27.5H222.835L222.275 25.33H219.489L218.929 27.5H216.829ZM226.436 27.5V18.372H228.494V27.5H226.436ZM231.067 27.5V18.372H234.357C235.001 18.372 235.589 18.4607 236.121 18.638C236.653 18.806 237.078 19.0953 237.395 19.506C237.712 19.9167 237.871 20.486 237.871 21.214C237.871 21.886 237.722 22.4413 237.423 22.88C237.134 23.3093 236.742 23.6313 236.247 23.846L238.319 27.5H236.009L234.259 24.21H233.125V27.5H231.067ZM233.125 22.572H234.189C234.73 22.572 235.141 22.46 235.421 22.236C235.71 22.0027 235.855 21.662 235.855 21.214C235.855 20.766 235.71 20.4533 235.421 20.276C235.141 20.0987 234.73 20.01 234.189 20.01H233.125V22.572ZM240.073 27.5V18.372H245.785V20.108H242.131V21.942H245.239V23.664H242.131V25.764H245.925V27.5H240.073Z" fill="white"/>
</g>
<defs>
<filter id="filter0_d_3402_76000" x="0" y="0" width="283" height="48" filterUnits="userSpaceOnUse" color-interpolation-filters="sRGB">
<feFlood flood-opacity="0" result="BackgroundImageFix"/>
<feColorMatrix in="SourceAlpha" type="matrix" values="0 0 0 0 0 0 0 0 0 0 0 0 0 0 0 0 0 0 127 0" result="hardAlpha"/>
<feOffset dy="1"/>
<feGaussianBlur stdDeviation="2"/>
<feColorMatrix type="matrix" values="0 0 0 0 0 0 0 0 0 0 0 0 0 0 0 0 0 0 0.2 0"/>
<feBlend mode="normal" in2="BackgroundImageFix" result="effect1_dropShadow_3402_76000"/>
<feBlend mode="normal" in="SourceGraphic" in2="effect1_dropShadow_3402_76000" result="shape"/>
</filter>
</defs>
</svg>
