<svg width="48" height="48" viewBox="0 0 48 48" fill="none" xmlns="http://www.w3.org/2000/svg">
<path d="M13.3333 37.3333H26.6667C27.4222 37.3333 28.056 37.0773 28.568 36.5653C29.0782 36.0551 29.3333 35.4222 29.3333 34.6667C29.3333 33.9111 29.0782 33.2773 28.568 32.7653C28.056 32.2551 27.4222 32 26.6667 32H13.3333C12.5778 32 11.944 32.2551 11.432 32.7653C10.9218 33.2773 10.6667 33.9111 10.6667 34.6667C10.6667 35.4222 10.9218 36.0551 11.432 36.5653C11.944 37.0773 12.5778 37.3333 13.3333 37.3333ZM13.3333 26.6667H34.6667C35.4222 26.6667 36.0551 26.4107 36.5653 25.8987C37.0773 25.3884 37.3333 24.7556 37.3333 24C37.3333 23.2444 37.0773 22.6107 36.5653 22.0987C36.0551 21.5884 35.4222 21.3333 34.6667 21.3333H13.3333C12.5778 21.3333 11.944 21.5884 11.432 22.0987C10.9218 22.6107 10.6667 23.2444 10.6667 24C10.6667 24.7556 10.9218 25.3884 11.432 25.8987C11.944 26.4107 12.5778 26.6667 13.3333 26.6667ZM13.3333 16H34.6667C35.4222 16 36.0551 15.744 36.5653 15.232C37.0773 14.7218 37.3333 14.0889 37.3333 13.3333C37.3333 12.5778 37.0773 11.944 36.5653 11.432C36.0551 10.9218 35.4222 10.6667 34.6667 10.6667H13.3333C12.5778 10.6667 11.944 10.9218 11.432 11.432C10.9218 11.944 10.6667 12.5778 10.6667 13.3333C10.6667 14.0889 10.9218 14.7218 11.432 15.232C11.944 15.744 12.5778 16 13.3333 16ZM5.33333 48C3.86667 48 2.61067 47.4782 1.56533 46.4347C0.521778 45.3893 0 44.1333 0 42.6667V5.33333C0 3.86667 0.521778 2.61067 1.56533 1.56533C2.61067 0.521778 3.86667 0 5.33333 0H42.6667C44.1333 0 45.3893 0.521778 46.4347 1.56533C47.4782 2.61067 48 3.86667 48 5.33333V42.6667C48 44.1333 47.4782 45.3893 46.4347 46.4347C45.3893 47.4782 44.1333 48 42.6667 48H5.33333Z" fill="#2F3240"/>
</svg>
