<svg width="48" height="48" viewBox="0 0 48 48" fill="none" xmlns="http://www.w3.org/2000/svg">
<g filter="url(#filter0_d_4061_19156)">
<rect x="4" y="3" width="40" height="40" rx="4" fill="#459BD4"/>
<path d="M24.0002 20.5C23.3371 20.5 22.7012 20.7634 22.2324 21.2322C21.7636 21.7011 21.5002 22.337 21.5002 23C21.5002 23.663 21.7636 24.2989 22.2324 24.7678C22.7012 25.2366 23.3371 25.5 24.0002 25.5C24.6632 25.5 25.2991 25.2366 25.7679 24.7678C26.2368 24.2989 26.5002 23.663 26.5002 23C26.5002 22.337 26.2368 21.7011 25.7679 21.2322C25.2991 20.7634 24.6632 20.5 24.0002 20.5ZM24.0002 27.1667C22.8951 27.1667 21.8353 26.7277 21.0539 25.9463C20.2725 25.1649 19.8335 24.1051 19.8335 23C19.8335 21.8949 20.2725 20.8351 21.0539 20.0537C21.8353 19.2723 22.8951 18.8333 24.0002 18.8333C25.1052 18.8333 26.165 19.2723 26.9464 20.0537C27.7278 20.8351 28.1668 21.8949 28.1668 23C28.1668 24.1051 27.7278 25.1649 26.9464 25.9463C26.165 26.7277 25.1052 27.1667 24.0002 27.1667ZM24.0002 16.75C19.8335 16.75 16.2752 19.3417 14.8335 23C16.2752 26.6583 19.8335 29.25 24.0002 29.25C28.1668 29.25 31.7252 26.6583 33.1668 23C31.7252 19.3417 28.1668 16.75 24.0002 16.75Z" fill="white"/>
</g>
<defs>
<filter id="filter0_d_4061_19156" x="0" y="0" width="48" height="48" filterUnits="userSpaceOnUse" color-interpolation-filters="sRGB">
<feFlood flood-opacity="0" result="BackgroundImageFix"/>
<feColorMatrix in="SourceAlpha" type="matrix" values="0 0 0 0 0 0 0 0 0 0 0 0 0 0 0 0 0 0 127 0" result="hardAlpha"/>
<feOffset dy="1"/>
<feGaussianBlur stdDeviation="2"/>
<feColorMatrix type="matrix" values="0 0 0 0 0.270588 0 0 0 0 0.607843 0 0 0 0 0.831373 0 0 0 0.5 0"/>
<feBlend mode="normal" in2="BackgroundImageFix" result="effect1_dropShadow_4061_19156"/>
<feBlend mode="normal" in="SourceGraphic" in2="effect1_dropShadow_4061_19156" result="shape"/>
</filter>
</defs>
</svg>
