<svg width="62" height="97" viewBox="0 0 62 97" fill="none" xmlns="http://www.w3.org/2000/svg">
<path d="M61.0851 73.6464V94.4327C61.0831 94.7485 61.0189 95.0609 60.8961 95.3519C60.7733 95.6429 60.5944 95.9069 60.3695 96.1288C60.1446 96.3507 59.8782 96.5262 59.5854 96.6452C59.2927 96.7642 58.9793 96.8245 58.6633 96.8225H24.0664C26.0446 95.3304 27.6493 93.4 28.7543 91.1832C29.8593 88.9664 30.4344 86.5236 30.4344 84.0471C30.4344 81.5705 29.8593 79.1278 28.7543 76.911C27.6493 74.6942 26.0446 72.7638 24.0664 71.2717H58.6633C58.9786 71.2677 59.2916 71.3261 59.5843 71.4435C59.877 71.5608 60.1435 71.7349 60.3686 71.9556C60.5937 72.1763 60.7729 72.4393 60.8958 72.7295C61.0188 73.0197 61.0831 73.3313 61.0851 73.6464V73.6464Z" fill="white"/>
<path d="M61.0859 2.25448V23.2963C61.0859 23.8943 60.8482 24.4677 60.4251 24.8905C60.0019 25.3133 59.428 25.5508 58.8296 25.5508L12.0637 25.5508C8.87214 25.5508 5.81132 24.284 3.55457 22.0291C1.29781 19.7742 0.0299761 16.7158 0.0299761 13.5269V12.0239C0.0299761 8.83497 1.29781 5.77664 3.55457 3.52172C5.81132 1.2668 8.87214 0 12.0637 0L58.8296 0C59.428 0 60.0019 0.237525 60.4251 0.660323C60.8482 1.08312 61.0859 1.65656 61.0859 2.25448V2.25448Z" fill="white"/>
<path d="M61.0859 37.8912V58.933C61.0859 59.531 60.8482 60.1044 60.4251 60.5272C60.0019 60.95 59.428 61.1875 58.8296 61.1875H12.0637C8.87213 61.1875 5.81132 59.9207 3.55456 57.6658C1.2978 55.4109 0.0299704 52.3526 0.0299704 49.1636V47.6606C0.0299704 44.4717 1.2978 41.4134 3.55456 39.1584C5.81132 36.9035 8.87213 35.6367 12.0637 35.6367H58.8296C59.428 35.6367 60.0019 35.8742 60.4251 36.297C60.8482 36.7198 61.0859 37.2933 61.0859 37.8912V37.8912Z" fill="white"/>
<path d="M12.8159 96.8531C19.8939 96.8531 25.6318 91.1199 25.6318 84.0477C25.6318 76.9754 19.8939 71.2422 12.8159 71.2422C5.73787 71.2422 0 76.9754 0 84.0477C0 91.1199 5.73787 96.8531 12.8159 96.8531Z" fill="#98BD20"/>
</svg>
