<svg width="130" height="32" viewBox="0 0 130 32" fill="none" xmlns="http://www.w3.org/2000/svg">
<g clip-path="url(#clip0_4463_76161)">
<path d="M19.8046 23.8793V30.6185C19.8039 30.7209 19.7831 30.8221 19.7433 30.9165C19.7035 31.0108 19.6455 31.0964 19.5726 31.1684C19.4997 31.2403 19.4133 31.2972 19.3184 31.3358C19.2235 31.3744 19.1219 31.3939 19.0194 31.3933H7.80273C8.44408 30.9095 8.96434 30.2837 9.32259 29.565C9.68084 28.8462 9.86729 28.0543 9.86729 27.2514C9.86729 26.4484 9.68084 25.6565 9.32259 24.9378C8.96434 24.219 8.44408 23.5932 7.80273 23.1094H19.0194C19.1216 23.1081 19.2231 23.1271 19.318 23.1651C19.4129 23.2032 19.4993 23.2596 19.5723 23.3312C19.6453 23.4027 19.7034 23.488 19.7432 23.5821C19.7831 23.6762 19.8039 23.7772 19.8046 23.8793Z" fill="#191D34"/>
<path d="M19.8047 0.730927V7.55292C19.8047 7.74677 19.7276 7.93268 19.5904 8.06976C19.4532 8.20684 19.2672 8.28384 19.0732 8.28384L3.91115 8.28384C2.87642 8.28384 1.88408 7.87313 1.15241 7.14206C0.420748 6.41099 0.00970268 5.41945 0.00970268 4.38556V3.89828C0.00970268 2.86439 0.420748 1.87285 1.15241 1.14178C1.88408 0.41071 2.87642 0 3.91115 0L19.0732 0C19.2672 0 19.4532 0.0770081 19.5904 0.214084C19.7276 0.351159 19.8047 0.537073 19.8047 0.730927Z" fill="#191D34"/>
<path d="M19.8047 12.2856V19.1076C19.8047 19.3015 19.7276 19.4874 19.5904 19.6244C19.4532 19.7615 19.2672 19.8385 19.0732 19.8385H3.91115C2.87642 19.8385 1.88408 19.4278 1.15241 18.6968C0.420748 17.9657 0.00970268 16.9741 0.00970268 15.9403V15.453C0.00970268 14.4191 0.420748 13.4275 1.15241 12.6965C1.88408 11.9654 2.87642 11.5547 3.91115 11.5547L19.0732 11.5547C19.2672 11.5547 19.4532 11.6317 19.5904 11.7688C19.7276 11.9058 19.8047 12.0918 19.8047 12.2856Z" fill="#191D34"/>
<path d="M4.15504 31.3971C6.44981 31.3971 8.31009 29.5383 8.31009 27.2454C8.31009 24.9525 6.44981 23.0938 4.15504 23.0938C1.86028 23.0938 0 24.9525 0 27.2454C0 29.5383 1.86028 31.3971 4.15504 31.3971Z" fill="#98BD20"/>
<path d="M52.592 6.74058C52.5614 6.78555 52.5235 6.82508 52.4798 6.85753C49.583 9.0893 46.3936 7.0427 46.3936 4.25543C46.3897 3.31886 46.7577 2.41895 47.4168 1.75305C48.0759 1.08714 48.9724 0.709567 49.9098 0.703125C52.67 0.703125 54.6988 3.85586 52.592 6.74058Z" fill="#191D34"/>
<path d="M36.8 20.2467L44.2273 30.967C44.2781 31.04 44.3078 31.1255 44.3134 31.2142C44.3189 31.303 44.3001 31.3915 44.2589 31.4703C44.2177 31.5491 44.1557 31.6151 44.0797 31.6613C44.0036 31.7074 43.9164 31.7319 43.8274 31.732H37.1657C37.0858 31.7321 37.0071 31.7126 36.9366 31.6752C36.866 31.6379 36.8057 31.5837 36.7609 31.5176L31.7329 24.0475C31.6746 23.9608 31.5899 23.895 31.4913 23.8601C31.3927 23.8251 31.2855 23.8228 31.1855 23.8533C31.0854 23.8839 30.9979 23.9458 30.9358 24.0299C30.8737 24.114 30.8403 24.2159 30.8405 24.3204V31.2545C30.8405 31.3837 30.7891 31.5076 30.6977 31.599C30.6062 31.6904 30.4822 31.7417 30.3528 31.7417H24.7103C24.581 31.7417 24.457 31.6904 24.3655 31.599C24.274 31.5076 24.2227 31.3837 24.2227 31.2545V0.487285C24.2227 0.358049 24.274 0.234106 24.3655 0.142722C24.457 0.0513388 24.581 0 24.7103 0L30.3528 0C30.4822 0 30.6062 0.0513388 30.6977 0.142722C30.7891 0.234106 30.8405 0.358049 30.8405 0.487285V16.0804C30.8407 16.184 30.874 16.2848 30.9355 16.3682C30.997 16.4516 31.0835 16.5133 31.1824 16.5443C31.2814 16.5752 31.3876 16.5739 31.4857 16.5404C31.5838 16.5069 31.6687 16.4431 31.7281 16.3582L36.1513 10.0235C36.1962 9.9589 36.2559 9.90614 36.3256 9.86965C36.3952 9.83317 36.4726 9.81405 36.5512 9.81392H42.9155C43.0048 9.81433 43.0924 9.83926 43.1685 9.88599C43.2446 9.93272 43.3064 9.99945 43.3472 10.0789C43.388 10.1583 43.4061 10.2475 43.3996 10.3365C43.3932 10.4255 43.3623 10.5111 43.3105 10.5838L36.8048 19.6863C36.7464 19.7679 36.7146 19.8654 36.7137 19.9657C36.7128 20.066 36.743 20.1641 36.8 20.2467Z" fill="#191D34"/>
<path d="M52.7279 9.78125H47.1244C46.8551 9.78125 46.6367 9.99941 46.6367 10.2685V31.251C46.6367 31.5201 46.8551 31.7383 47.1244 31.7383H52.7279C52.9972 31.7383 53.2155 31.5201 53.2155 31.251V10.2685C53.2155 9.99941 52.9972 9.78125 52.7279 9.78125Z" fill="#191D34"/>
<path d="M80.5846 19.3079L86.7489 22.6068L86.5245 23.0941C85.1122 26.08 82.7858 28.5396 79.882 30.1172C76.9782 31.6947 73.6474 32.3084 70.3714 31.8695C67.0954 31.4305 64.0441 29.9617 61.6588 27.6755C59.2735 25.3893 57.6779 22.4042 57.1027 19.152C56.5918 15.9353 57.1036 12.6395 58.5662 9.72887C60.0288 6.81821 62.3683 4.43934 65.2553 2.92732C68.1424 1.4153 71.4314 0.846335 74.6591 1.30056C77.8868 1.75478 80.8906 3.2093 83.2473 5.45925L83.6472 5.83933L78.8874 10.9363L78.4827 10.5514C77.1913 9.28503 75.5331 8.45778 73.7441 8.1873C71.955 7.91682 70.1262 8.21687 68.5176 9.04478C66.9091 9.87268 65.6027 11.1863 64.7844 12.7988C63.9661 14.4112 63.6774 16.2405 63.9595 18.0263C64.3489 20.2504 65.6052 22.2294 67.4529 23.5293C69.3005 24.8292 71.5887 25.3438 73.8156 24.9604C75.2404 24.7223 76.5833 24.1328 77.7227 23.2454C78.8621 22.3579 79.7619 21.2005 80.3407 19.878L80.5846 19.3079Z" fill="#98BD20"/>
<path d="M105.217 6.74058C105.186 6.78555 105.149 6.82508 105.105 6.85753C102.208 9.0893 99.0186 7.0427 99.0186 4.25543C99.0147 3.31886 99.3827 2.41895 100.042 1.75305C100.701 1.08714 101.597 0.709567 102.535 0.703125C105.29 0.703125 107.324 3.85586 105.217 6.74058Z" fill="#98BD20"/>
<path d="M94.5471 0H88.8998C88.6305 0 88.4121 0.218165 88.4121 0.487285V31.2545C88.4121 31.5236 88.6305 31.7417 88.8998 31.7417H94.5471C94.8165 31.7417 95.0348 31.5236 95.0348 31.2545V0.487285C95.0348 0.218165 94.8165 0 94.5471 0Z" fill="#98BD20"/>
<path d="M105.359 9.78125H99.7553C99.4859 9.78125 99.2676 9.99941 99.2676 10.2685V31.251C99.2676 31.5201 99.4859 31.7383 99.7553 31.7383H105.359C105.628 31.7383 105.846 31.5201 105.846 31.251V10.2685C105.846 9.99941 105.628 9.78125 105.359 9.78125Z" fill="#98BD20"/>
<path d="M129.197 31.7417H122.535C122.455 31.7419 122.376 31.7224 122.306 31.685C122.235 31.6476 122.175 31.5935 122.13 31.5273L117.102 24.0475C117.044 23.9608 116.959 23.895 116.86 23.8601C116.762 23.8251 116.655 23.8228 116.555 23.8533C116.455 23.8839 116.367 23.9458 116.305 24.0299C116.243 24.114 116.209 24.2159 116.21 24.3204V31.2545C116.21 31.3837 116.158 31.5076 116.067 31.599C115.975 31.6904 115.851 31.7417 115.722 31.7417H110.075C109.945 31.7417 109.821 31.6904 109.73 31.599C109.638 31.5076 109.587 31.3837 109.587 31.2545V0.487285C109.587 0.358049 109.638 0.234106 109.73 0.142722C109.821 0.0513388 109.945 0 110.075 0L115.722 0C115.851 0 115.975 0.0513388 116.067 0.142722C116.158 0.234106 116.21 0.358049 116.21 0.487285V16.0804C116.21 16.184 116.243 16.2848 116.305 16.3682C116.366 16.4516 116.453 16.5133 116.552 16.5443C116.65 16.5752 116.757 16.5739 116.855 16.5404C116.953 16.5069 117.038 16.4431 117.097 16.3582L121.516 10.0235C121.56 9.9589 121.62 9.90614 121.69 9.86965C121.759 9.83317 121.837 9.81405 121.915 9.81392H128.294C128.384 9.81433 128.471 9.83926 128.547 9.88599C128.624 9.93272 128.685 9.99945 128.726 10.0789C128.767 10.1583 128.785 10.2475 128.779 10.3365C128.772 10.4255 128.741 10.5111 128.689 10.5838L122.169 19.6863C122.111 19.7684 122.08 19.8662 122.08 19.9665C122.08 20.0668 122.111 20.1646 122.169 20.2467L129.601 30.967C129.655 31.0404 129.687 31.1273 129.694 31.218C129.701 31.3087 129.682 31.3995 129.64 31.4801C129.598 31.5607 129.534 31.6279 129.456 31.6742C129.377 31.7204 129.288 31.7438 129.197 31.7417Z" fill="#98BD20"/>
</g>
<defs>
<clipPath id="clip0_4463_76161">
<rect width="129.684" height="32" fill="white"/>
</clipPath>
</defs>
</svg>
