<svg width="130" height="32" viewBox="0 0 130 32" fill="none" xmlns="http://www.w3.org/2000/svg">
<g clip-path="url(#clip0_286_2715)">
<path d="M19.789 23.8774V30.6165C19.7883 30.7189 19.7675 30.8202 19.7277 30.9145C19.688 31.0089 19.63 31.0945 19.5572 31.1664C19.4843 31.2384 19.398 31.2953 19.3032 31.3338C19.2083 31.3724 19.1068 31.392 19.0044 31.3913H7.79688C8.4377 30.9076 8.95754 30.2817 9.3155 29.563C9.67345 28.8443 9.85976 28.0523 9.85976 27.2494C9.85976 26.4465 9.67345 25.6545 9.3155 24.9358C8.95754 24.2171 8.4377 23.5912 7.79688 23.1075H19.0044C19.1066 23.1062 19.208 23.1251 19.3028 23.1632C19.3976 23.2012 19.484 23.2577 19.5569 23.3292C19.6298 23.4008 19.6878 23.4861 19.7277 23.5801C19.7675 23.6742 19.7883 23.7752 19.789 23.8774Z" fill="#191D34"/>
<path d="M19.7891 0.730927V7.55292C19.7891 7.74677 19.7121 7.93268 19.575 8.06976C19.4379 8.20684 19.252 8.28384 19.0581 8.28384L3.90845 8.28384C2.87456 8.28384 1.88301 7.87313 1.15195 7.14206C0.420877 6.41099 0.0101662 5.41945 0.0101662 4.38556V3.89828C0.0101662 2.86439 0.420877 1.87285 1.15195 1.14178C1.88301 0.41071 2.87456 0 3.90845 0L19.0581 0C19.252 0 19.4379 0.0770081 19.575 0.214084C19.7121 0.351159 19.7891 0.537073 19.7891 0.730927Z" fill="#191D34"/>
<path d="M19.7891 12.2837V19.1056C19.7891 19.2995 19.7121 19.4854 19.575 19.6225C19.4379 19.7596 19.252 19.8366 19.0581 19.8366H3.90844C2.87456 19.8366 1.88301 19.4259 1.15195 18.6948C0.420876 17.9637 0.0101643 16.9722 0.0101643 15.9383V15.451C0.0101643 14.4171 0.420876 13.4256 1.15195 12.6945C1.88301 11.9634 2.87456 11.5527 3.90844 11.5527L19.0581 11.5527C19.252 11.5527 19.4379 11.6297 19.575 11.7668C19.7121 11.9039 19.7891 12.0898 19.7891 12.2837Z" fill="#191D34"/>
<path d="M4.15167 31.401C6.44457 31.401 8.30334 29.5422 8.30334 27.2493C8.30334 24.9564 6.44457 23.0977 4.15167 23.0977C1.85876 23.0977 0 24.9564 0 27.2493C0 29.5422 1.85876 31.401 4.15167 31.401Z" fill="#98BD20"/>
<path d="M52.5489 6.73863C52.5183 6.78359 52.4804 6.82312 52.4368 6.85558C49.5423 9.08735 46.3555 7.04075 46.3555 4.25348C46.3516 3.3169 46.7193 2.417 47.3779 1.75109C48.0365 1.08518 48.9323 0.707614 49.8688 0.701172C52.6269 0.701172 54.654 3.8539 52.5489 6.73863Z" fill="#191D34"/>
<path d="M36.7702 20.2467L44.1916 30.967C44.2422 31.04 44.2719 31.1255 44.2775 31.2142C44.2831 31.303 44.2643 31.3915 44.2231 31.4703C44.1819 31.5491 44.12 31.6151 44.044 31.6613C43.968 31.7074 43.8809 31.7319 43.792 31.732H37.1357C37.0558 31.7321 36.9772 31.7126 36.9067 31.6752C36.8362 31.6379 36.7759 31.5837 36.7312 31.5176L31.7073 24.0475C31.649 23.9608 31.5644 23.895 31.4659 23.8601C31.3674 23.8251 31.2602 23.8228 31.1603 23.8533C31.0603 23.8839 30.9729 23.9458 30.9108 24.0299C30.8487 24.114 30.8153 24.2159 30.8156 24.3204V31.2545C30.8156 31.3837 30.7642 31.5076 30.6729 31.599C30.5815 31.6904 30.4575 31.7417 30.3283 31.7417H24.6904C24.5612 31.7417 24.4372 31.6904 24.3458 31.599C24.2545 31.5076 24.2031 31.3837 24.2031 31.2545V0.487285C24.2031 0.358049 24.2545 0.234106 24.3458 0.142722C24.4372 0.0513388 24.5612 0 24.6904 0L30.3283 0C30.4575 0 30.5815 0.0513388 30.6729 0.142722C30.7642 0.234106 30.8156 0.358049 30.8156 0.487285V16.0804C30.8158 16.184 30.8491 16.2848 30.9105 16.3682C30.972 16.4516 31.0584 16.5133 31.1572 16.5443C31.2561 16.5752 31.3622 16.5739 31.4603 16.5404C31.5583 16.5069 31.6431 16.4431 31.7024 16.3582L36.1221 10.0235C36.1669 9.9589 36.2266 9.90614 36.2962 9.86965C36.3658 9.83317 36.4431 9.81405 36.5217 9.81392H42.8808C42.97 9.81433 43.0575 9.83926 43.1336 9.88599C43.2096 9.93272 43.2714 9.99945 43.3121 10.0789C43.3529 10.1583 43.371 10.2475 43.3645 10.3365C43.358 10.4255 43.3272 10.5111 43.2755 10.5838L36.7751 19.6863C36.7167 19.7679 36.6849 19.8654 36.684 19.9657C36.6832 20.066 36.7132 20.1641 36.7702 20.2467Z" fill="#191D34"/>
<path d="M52.6858 9.78516H47.0869C46.8178 9.78516 46.5996 10.0033 46.5996 10.2724V31.2549C46.5996 31.524 46.8178 31.7422 47.0869 31.7422H52.6858C52.9549 31.7422 53.1731 31.524 53.1731 31.2549V10.2724C53.1731 10.0033 52.9549 9.78516 52.6858 9.78516Z" fill="#191D34"/>
<path d="M80.5185 19.3118L86.6777 22.6107L86.4536 23.098C85.0424 26.0839 82.7179 28.5435 79.8165 30.1211C76.915 31.6986 73.5869 32.3123 70.3136 31.8734C67.0403 31.4344 63.9914 29.9656 61.6081 27.6794C59.2247 25.3932 57.6304 22.4081 57.0557 19.1559C56.5452 15.9392 57.0566 12.6434 58.518 9.73278C59.9794 6.82212 62.317 4.44325 65.2017 2.93123C68.0864 1.41921 71.3727 0.850241 74.5978 1.30446C77.8229 1.75868 80.8242 3.21321 83.179 5.46315L83.5786 5.84324L78.8227 10.9402L78.4183 10.5553C77.1279 9.28894 75.4711 8.46169 73.6835 8.19121C71.8959 7.92072 70.0685 8.22077 68.4613 9.04868C66.8541 9.87659 65.5488 11.1902 64.7311 12.8027C63.9135 14.4152 63.6251 16.2444 63.9069 18.0302C64.296 20.2543 65.5513 22.2333 67.3974 23.5332C69.2436 24.8331 71.5299 25.3477 73.7549 24.9643C75.1786 24.7262 76.5205 24.1367 77.6589 23.2493C78.7973 22.3618 79.6965 21.2045 80.2748 19.8819L80.5185 19.3118Z" fill="#98BD20"/>
<path d="M105.131 6.73863C105.1 6.78359 105.062 6.82312 105.019 6.85558C102.124 9.08735 98.9375 7.04075 98.9375 4.25348C98.9336 3.3169 99.3013 2.417 99.9599 1.75109C100.619 1.08518 101.514 0.707614 102.451 0.701172C105.204 0.701172 107.236 3.8539 105.131 6.73863Z" fill="#98BD20"/>
<path d="M94.4699 0H88.8271C88.558 0 88.3398 0.218165 88.3398 0.487285V31.2545C88.3398 31.5236 88.558 31.7417 88.8271 31.7417H94.4699C94.739 31.7417 94.9572 31.5236 94.9572 31.2545V0.487285C94.9572 0.218165 94.739 0 94.4699 0Z" fill="#98BD20"/>
<path d="M105.274 9.78516H99.6748C99.4057 9.78516 99.1875 10.0033 99.1875 10.2724V31.2549C99.1875 31.524 99.4057 31.7422 99.6748 31.7422H105.274C105.543 31.7422 105.761 31.524 105.761 31.2549V10.2724C105.761 10.0033 105.543 9.78516 105.274 9.78516Z" fill="#98BD20"/>
<path d="M129.092 31.7417H122.435C122.356 31.7419 122.277 31.7224 122.206 31.685C122.136 31.6476 122.076 31.5935 122.031 31.5273L117.007 24.0475C116.949 23.9608 116.864 23.895 116.766 23.8601C116.667 23.8251 116.56 23.8228 116.46 23.8533C116.36 23.8839 116.273 23.9458 116.211 24.0299C116.149 24.114 116.115 24.2159 116.115 24.3204V31.2545C116.115 31.3837 116.064 31.5076 115.973 31.599C115.881 31.6904 115.757 31.7417 115.628 31.7417H109.985C109.856 31.7417 109.732 31.6904 109.641 31.599C109.549 31.5076 109.498 31.3837 109.498 31.2545V0.487285C109.498 0.358049 109.549 0.234106 109.641 0.142722C109.732 0.0513388 109.856 0 109.985 0L115.628 0C115.757 0 115.881 0.0513388 115.973 0.142722C116.064 0.234106 116.115 0.358049 116.115 0.487285V16.0804C116.116 16.184 116.149 16.2848 116.21 16.3682C116.272 16.4516 116.358 16.5133 116.457 16.5443C116.556 16.5752 116.662 16.5739 116.76 16.5404C116.858 16.5069 116.943 16.4431 117.002 16.3582L121.417 10.0235C121.462 9.9589 121.522 9.90614 121.591 9.86965C121.661 9.83317 121.738 9.81405 121.817 9.81392H128.19C128.28 9.81433 128.367 9.83926 128.443 9.88599C128.519 9.93272 128.581 9.99945 128.622 10.0789C128.662 10.1583 128.681 10.2475 128.674 10.3365C128.668 10.4255 128.637 10.5111 128.585 10.5838L122.07 19.6863C122.012 19.7684 121.981 19.8662 121.981 19.9665C121.981 20.0668 122.012 20.1646 122.07 20.2467L129.496 30.967C129.55 31.0404 129.582 31.1273 129.589 31.218C129.596 31.3087 129.577 31.3995 129.535 31.4801C129.493 31.5607 129.429 31.6279 129.351 31.6742C129.272 31.7204 129.183 31.7438 129.092 31.7417Z" fill="#98BD20"/>
</g>
<defs>
<clipPath id="clip0_286_2715">
<rect width="129.579" height="32" fill="#191D34"/>
</clipPath>
</defs>
</svg>
