<svg width="175" height="35" viewBox="0 0 175 35" fill="none" xmlns="http://www.w3.org/2000/svg">
<g clip-path="url(#clip0_1104_1839)">
<path d="M74.7154 0.327118H78.4512L81.6888 11.1215L84.5944 0.327118H90.3226L84.2624 19.5444H79.7794L76.5418 8.91357L73.3041 19.5444H68.8212L62.7609 0.327118H68.4891L71.3947 11.1215L74.7154 0.327118Z" fill="#001A54"/>
<path d="M99.0394 19.5444H93.6433V0.327118H99.0394V19.5444Z" fill="#001A54"/>
<path d="M103.024 5.64252C103.024 4.90654 103.19 4.17056 103.522 3.51636C103.854 2.78037 104.352 2.20794 104.934 1.71729C105.598 1.14486 106.345 0.735981 107.175 0.490654C108.171 0.163551 109.167 0 110.164 0C111.243 0 112.322 0.163551 113.318 0.490654C114.232 0.817757 114.979 1.22664 115.726 1.88084C116.39 2.45327 116.888 3.10748 117.22 3.92523C117.552 4.66122 117.718 5.56075 117.718 6.3785L112.488 6.86916C112.488 6.29673 112.322 5.80607 111.907 5.3972C111.492 5.07009 110.994 4.82477 110.496 4.90654C110.081 4.90654 109.666 4.98832 109.334 5.31542C109.084 5.47897 108.918 5.80607 108.918 6.13318C108.918 6.54206 109.167 6.86916 109.583 7.03271C110.081 7.27804 110.662 7.52336 111.243 7.68692C111.907 7.85047 112.654 8.09579 113.401 8.34112C114.149 8.58645 114.896 8.91355 115.56 9.40421C116.224 9.89486 116.805 10.4673 117.22 11.1215C117.718 11.9393 117.967 12.9206 117.884 13.9019C117.884 14.6379 117.718 15.4556 117.386 16.1098C117.054 16.8458 116.556 17.5 115.892 18.0724C115.145 18.6449 114.398 19.1355 113.484 19.3808C112.488 19.7079 111.409 19.8715 110.33 19.8715C109.25 19.8715 108.171 19.7079 107.092 19.3808C106.179 19.0537 105.349 18.5631 104.685 17.9907C103.356 16.8458 102.609 15.1285 102.609 13.3294L107.839 12.8388C107.839 13.9836 108.752 14.965 109.915 14.965C109.998 14.965 109.998 14.965 110.081 14.965C110.662 15.0467 111.16 14.8832 111.658 14.4743C111.907 14.229 112.073 13.9019 112.156 13.5748C112.156 13.1659 111.907 12.8388 111.492 12.6752C110.994 12.4299 110.413 12.1846 109.832 12.021C109.167 11.7757 108.42 11.6121 107.673 11.285C106.926 11.0397 106.179 10.6308 105.515 10.222C104.851 9.73131 104.269 9.15888 103.854 8.4229C103.273 7.60514 103.024 6.62383 103.024 5.64252Z" fill="#001A54"/>
<path d="M121.371 5.64252C121.371 4.08878 122.035 2.69859 123.197 1.71729C123.861 1.14486 124.609 0.735977 125.439 0.49065C127.431 -0.163556 129.59 -0.0817802 131.582 0.49065C132.495 0.817752 133.242 1.22663 133.99 1.88084C134.654 2.45327 135.152 3.10747 135.484 3.92523C135.816 4.66121 135.982 5.56074 135.982 6.3785L130.752 6.86915C130.752 6.29672 130.586 5.80607 130.171 5.39719C129.756 5.07009 129.258 4.82476 128.759 4.90654C128.344 4.90654 127.929 4.98831 127.597 5.31542C127.348 5.47897 127.182 5.80607 127.182 6.13317C127.182 6.54205 127.431 6.86915 127.846 7.03271C128.344 7.27803 128.926 7.52336 129.507 7.68691C130.171 7.85046 130.918 8.09579 131.665 8.34112C132.412 8.58644 133.159 8.91355 133.824 9.4042C134.488 9.89486 135.069 10.4673 135.484 11.1215C136.314 12.6752 136.397 14.4743 135.65 16.1098C135.318 16.8458 134.82 17.5 134.156 18.0724C133.408 18.6449 132.661 19.1355 131.748 19.3808C130.752 19.7079 129.673 19.8715 128.593 19.8715C127.514 19.8715 126.435 19.7079 125.356 19.3808C124.443 19.0537 123.612 18.6449 122.948 17.9907C122.284 17.4182 121.786 16.6822 121.454 15.9463C121.122 15.1285 120.873 14.229 120.873 13.4112L126.103 12.9206C126.186 14.1472 127.265 15.1285 128.51 15.1285C129.009 15.1285 129.424 14.9649 129.839 14.6378C130.088 14.3925 130.337 14.0654 130.337 13.7383C130.337 13.3294 130.088 13.0023 129.673 12.8388C129.175 12.5935 128.593 12.3481 128.012 12.1846C127.348 11.9392 126.601 11.7757 125.854 11.4486C125.107 11.2033 124.36 10.7944 123.695 10.3855C123.031 9.89485 122.45 9.32242 122.035 8.58644C121.537 7.60514 121.288 6.62383 121.371 5.64252Z" fill="#001A54"/>
<path d="M145.363 16.0281L144.284 19.5444H138.556L145.197 0.327118H151.34L157.982 19.5444H152.253L151.174 16.0281H145.363ZM148.269 6.21497L146.608 11.6939H150.012L148.269 6.21497Z" fill="#001A54"/>
<path d="M160.97 0.327118H166.366V14.3108H174.917V19.4626H160.97V0.327118Z" fill="#001A54"/>
<path d="M74.6324 23.9603C74.0512 23.9603 73.5531 24.1238 73.055 24.2874C72.5569 24.5327 72.0588 24.8598 71.7268 25.2687C71.3117 25.7594 70.9796 26.25 70.8136 26.8224C70.3155 28.0491 70.3155 29.4393 70.8136 30.7477C71.0626 31.3201 71.3117 31.8108 71.7268 32.3014C72.1418 32.7103 72.5569 33.0374 73.055 33.2827C73.5531 33.528 74.0512 33.6098 74.6324 33.6098C75.1305 33.6098 75.6286 33.528 76.0436 33.2827C76.4587 33.0374 76.8738 32.7921 77.2059 32.465C77.538 32.1379 77.87 31.8108 78.0361 31.3201C78.2021 30.9112 78.3681 30.5023 78.3681 30.0117H74.7154V28.7033H79.9454V34.8365H78.7832L78.3681 33.3645C78.0361 33.6916 77.704 33.9369 77.3719 34.1822C76.9568 34.4276 76.6248 34.5911 76.2097 34.7547C75.7116 34.9182 75.1305 35 74.6324 35C73.8852 35 73.138 34.8365 72.4739 34.5094C71.8098 34.1822 71.1456 33.7734 70.6475 33.2009C70.0664 32.6285 69.6513 31.9743 69.4023 31.2383C68.7381 29.6846 68.7381 27.8855 69.4023 26.3318C69.7343 25.5958 70.1494 24.9416 70.6475 24.3692C71.1456 23.7967 71.8098 23.3879 72.4739 23.0608C73.138 22.7337 73.8852 22.5701 74.6324 22.5701C75.2965 22.5701 75.8776 22.6519 76.4587 22.8154C77.0398 22.979 77.538 23.3061 77.953 23.6332C78.3681 23.9603 78.7832 24.4509 79.0323 24.8598C79.3643 25.3505 79.6134 25.9229 79.7794 26.4953H78.1191C77.87 25.7594 77.4549 25.1051 76.8738 24.6145C76.2927 24.1238 75.4625 23.8785 74.6324 23.9603Z" fill="#001A54"/>
<path d="M89.1604 29.8481H86.8359V34.9182H85.2585V22.6519H89.9075C90.4056 22.6519 90.9037 22.7336 91.4018 22.979C92.315 23.3061 92.9791 24.042 93.3942 24.8598C93.5603 25.2687 93.6433 25.7593 93.7263 26.25C93.7263 26.8224 93.6433 27.4766 93.3112 27.9673C93.0622 28.3762 92.7301 28.7033 92.398 29.0304C91.9829 29.3575 91.5678 29.6028 91.0697 29.6846L94.0584 34.8364H92.149L89.1604 29.8481ZM86.8359 28.4579H89.9075C90.1566 28.4579 90.4886 28.3762 90.7377 28.2944C90.9867 28.2126 91.2358 28.0491 91.4018 27.8037C91.5678 27.6402 91.7339 27.3948 91.8999 27.0677C91.9829 26.8224 92.0659 26.4953 92.0659 26.1682C92.0659 25.8411 91.9829 25.5958 91.8999 25.2687C91.8169 25.0233 91.6509 24.778 91.4018 24.5327C91.2358 24.3691 90.9867 24.2056 90.7377 24.042C90.4886 23.9603 90.1566 23.8785 89.9075 23.8785H86.8359V28.4579Z" fill="#001A54"/>
<path d="M109.001 28.7851C109.001 29.6028 108.835 30.5023 108.503 31.2383C108.171 31.9743 107.756 32.6285 107.258 33.2009C106.76 33.7734 106.096 34.1822 105.432 34.5094C104.768 34.8365 104.02 35 103.273 35C102.526 35 101.779 34.8365 101.115 34.5094C100.451 34.1822 99.7866 33.7734 99.2885 33.2009C98.7073 32.6285 98.2923 31.9743 98.0432 31.2383C97.3791 29.6846 97.3791 27.8855 98.0432 26.3318C98.3753 25.5958 98.7904 24.9416 99.2885 24.3692C99.7866 23.7967 100.451 23.3879 101.115 23.0608C101.779 22.7337 102.526 22.5701 103.273 22.5701C104.02 22.5701 104.768 22.7337 105.432 23.0608C106.096 23.3879 106.76 23.7967 107.258 24.3692C107.839 24.9416 108.254 25.5958 108.586 26.3318C108.835 27.1495 109.001 27.9673 109.001 28.7851ZM98.9564 28.7851C98.9564 29.4393 99.0394 30.0935 99.2885 30.7477C99.5375 31.3201 99.7866 31.8108 100.202 32.3014C100.617 32.7103 101.032 33.0374 101.53 33.2827C102.526 33.7734 103.688 33.7734 104.685 33.2827C105.183 33.0374 105.681 32.7103 106.013 32.3014C106.428 31.8108 106.76 31.3201 106.926 30.7477C107.424 29.521 107.424 28.1308 106.926 26.9042C106.677 26.3318 106.428 25.8411 106.013 25.3505C105.681 24.9416 105.183 24.6145 104.685 24.3692C103.688 23.8785 102.526 23.8785 101.53 24.3692C101.032 24.6145 100.534 24.9416 100.119 25.3505C99.7035 25.8411 99.3715 26.3318 99.2054 26.9042C99.0394 27.4766 98.9564 28.1308 98.9564 28.7851Z" fill="#001A54"/>
<path d="M117.718 34.9182C117.137 34.9182 116.473 34.8364 115.892 34.5911C115.394 34.4276 114.896 34.1005 114.481 33.6916C114.065 33.2827 113.733 32.8738 113.567 32.3832C113.318 31.8107 113.235 31.2383 113.235 30.6659V22.7336H114.813V30.6659C114.813 31.4836 115.062 32.3014 115.643 32.8738C116.224 33.4463 116.971 33.6916 117.801 33.6916C118.631 33.6916 119.379 33.4463 119.96 32.8738C120.541 32.3014 120.79 31.4836 120.79 30.6659V22.7336H122.367V30.6659C122.367 31.2383 122.284 31.8925 122.035 32.3832C121.786 32.8738 121.537 33.3645 121.122 33.7734C120.707 34.1822 120.209 34.5093 119.711 34.6729C118.963 34.8364 118.382 35 117.718 34.9182Z" fill="#001A54"/>
<path d="M131.831 22.6519C132.329 22.6519 132.91 22.7336 133.325 22.979C133.824 23.1425 134.239 23.4696 134.571 23.7967C134.903 24.1238 135.235 24.5327 135.401 25.0234C135.65 25.514 135.733 26.0047 135.733 26.4953C135.733 26.986 135.65 27.4766 135.401 27.9673C135.235 28.3762 134.903 28.785 134.571 29.1939C134.239 29.521 133.824 29.8481 133.325 30.0117C132.827 30.1752 132.329 30.3388 131.831 30.3388H129.175V35H127.597V22.6519H131.831ZM131.831 28.8668C132.163 28.8668 132.412 28.785 132.744 28.7033C132.993 28.6215 133.325 28.3762 133.492 28.2126C133.741 27.9673 133.907 27.7219 133.99 27.3948C134.073 27.0677 134.156 26.7406 134.156 26.4135C134.156 26.0864 134.073 25.7593 133.99 25.4322C133.907 25.1051 133.658 24.8598 133.492 24.6145C133.242 24.3691 132.993 24.2056 132.744 24.1238C132.495 24.042 132.163 23.9603 131.831 23.9603H129.175V28.785L131.831 28.8668Z" fill="#001A54"/>
<path d="M16.7694 0.327118V34.6729H10.7922C4.81499 34.6729 0 29.9299 0 24.0421V0.327118H16.7694Z" fill="#001A54"/>
<path d="M36.5275 0.327118H19.8411V34.6729H36.5275V0.327118Z" fill="#001A54"/>
<path d="M56.4516 19.8715V24.0421C56.4516 29.9299 51.6366 34.6729 45.6594 34.6729H39.7652V19.8715H56.4516Z" fill="#001A54"/>
<path d="M56.5346 0.327118H39.7652V16.764H56.5346V0.327118Z" fill="#0FD2FF"/>
</g>
<defs>
<clipPath id="clip0_1104_1839">
<rect width="175" height="35" fill="white"/>
</clipPath>
</defs>
</svg>
