<svg xmlns="http://www.w3.org/2000/svg" viewBox="0 0 210.59 85.04"><defs><style>.cls-1{fill:none;}.cls-2{fill:#fff;}.cls-3{fill: #1F2F79;}</style></defs><title>WS LOGO (3)</title><g id="Layer_2" data-name="Layer 2"><g id="_5-logos" data-name="5-logos"><g id="WS_LOGO" data-name="WS LOGO"><rect class="cls-1" width="210.59" height="85.04"/><g id="WS-symbol"><path class="cls-2" d="M36.69,30.3v27a9,9,0,0,1-18,0V18.71H25.1A11.59,11.59,0,0,1,36.6,28.82,12,12,0,0,1,36.69,30.3Z"/><path class="cls-2" d="M58.05,28.82V57.34a9,9,0,1,1-18,0V28.82Z"/><path class="cls-2" d="M79.41,28.82v20a12.35,12.35,0,0,0-18,0v-20Z"/><path class="cls-3" d="M79.41,57.34a9,9,0,1,1-9-9A9,9,0,0,1,79.41,57.34Z"/></g><g id="WS-wordmark"><path class="cls-2" d="M92.91,56.89a3.16,3.16,0,0,1,.3-1.35,3.72,3.72,0,0,1,.88-1.15,4.62,4.62,0,0,1,1.37-.8,5.2,5.2,0,0,1,1.76-.29,4.62,4.62,0,0,1,1.69.3,3.91,3.91,0,0,1,1.33.86,3.76,3.76,0,0,1,.88,1.27,4.07,4.07,0,0,1,.31,1.57h-2a2.23,2.23,0,0,0-.62-1.63A2.2,2.2,0,0,0,97.22,55a3.05,3.05,0,0,0-1,.15,2.28,2.28,0,0,0-.75.42,2,2,0,0,0-.47.6,1.49,1.49,0,0,0-.17.68,1.18,1.18,0,0,0,.52,1,5,5,0,0,0,1.27.64c.5.17,1.06.35,1.65.52a8,8,0,0,1,1.66.7A4.14,4.14,0,0,1,101.22,61a3.13,3.13,0,0,1,.52,1.89,3,3,0,0,1-.32,1.34,3.71,3.71,0,0,1-.91,1.15,4.17,4.17,0,0,1-1.42.8,5.47,5.47,0,0,1-1.87.3,5.34,5.34,0,0,1-1.86-.3A4.09,4.09,0,0,1,94,65.31a3.48,3.48,0,0,1-.87-1.26,4.25,4.25,0,0,1-.29-1.62h1.94a2.17,2.17,0,0,0,.62,1.67,2.58,2.58,0,0,0,1.85.59,2.94,2.94,0,0,0,1.94-.54,1.66,1.66,0,0,0,.62-1.31,1.37,1.37,0,0,0-.51-1.13A4.36,4.36,0,0,0,98,61c-.51-.18-1.06-.36-1.66-.54a8.68,8.68,0,0,1-1.65-.69,3.94,3.94,0,0,1-1.27-1.09A2.94,2.94,0,0,1,92.91,56.89Z"/><path class="cls-2" d="M113.78,53.4h9.75v1.84h-3.91V66.33h-1.94V55.24h-3.9Z"/><path class="cls-2" d="M146.64,59.86a6.5,6.5,0,0,1-.5,2.59,6.87,6.87,0,0,1-1.34,2.09,6.31,6.31,0,0,1-2,1.39,5.77,5.77,0,0,1-4.7,0,6.19,6.19,0,0,1-2-1.39,7.09,7.09,0,0,1-1.35-2.09,6.91,6.91,0,0,1,0-5.16,7.14,7.14,0,0,1,1.35-2.1,6,6,0,0,1,2-1.39,5.77,5.77,0,0,1,4.7,0,6.15,6.15,0,0,1,2,1.39,6.92,6.92,0,0,1,1.34,2.1A6.51,6.51,0,0,1,146.64,59.86Zm-1.94,0a5.1,5.1,0,0,0-1.31-3.46,4.09,4.09,0,0,0-1.34-1,3.63,3.63,0,0,0-1.56-.36,3.56,3.56,0,0,0-1.56.36,4.2,4.2,0,0,0-1.34,1,5.14,5.14,0,0,0-1,1.53,5.35,5.35,0,0,0,0,3.86,5.14,5.14,0,0,0,1,1.53,4.2,4.2,0,0,0,1.34,1,3.44,3.44,0,0,0,1.56.37,3.5,3.5,0,0,0,1.56-.37,4.09,4.09,0,0,0,1.34-1,5.14,5.14,0,0,0,1-1.53A5.06,5.06,0,0,0,144.7,59.86Z"/><path class="cls-2" d="M164.92,61.2h-2.26v5.13h-1.94V53.4h5.13a3.92,3.92,0,0,1,1.52.3,4,4,0,0,1,1.24.84,4.15,4.15,0,0,1,.83,1.24,3.72,3.72,0,0,1,.31,1.52,3.39,3.39,0,0,1-.45,1.84,4.38,4.38,0,0,1-1,1.12,4.67,4.67,0,0,1-1.44.74l3.18,5.33H167.9Zm-2.26-1.85h3.19a1.7,1.7,0,0,0,.74-.16,2.13,2.13,0,0,0,1-1.09,1.94,1.94,0,0,0,.17-.8,1.91,1.91,0,0,0-.17-.8,2.1,2.1,0,0,0-.43-.65,2.21,2.21,0,0,0-.61-.44,1.71,1.71,0,0,0-.74-.17h-3.19Z"/><path class="cls-2" d="M191.88,64.49v1.84h-8.72V53.4h8.52v1.84h-6.57v3.49h6v1.86h-6v3.9Z"/><path class="cls-2" d="M96.46,49.77H92.81l-6.65-21h4.65l4,13,4-13h3l4,13,4-13h4.66l-6.65,21h-3.66l-3.82-12.3Z"/><path class="cls-2" d="M121.07,49.77h-4.83v-21h4.83Z"/><path class="cls-2" d="M123.56,34.64a5.28,5.28,0,0,1,.51-2.28,5.72,5.72,0,0,1,1.48-1.89,7.73,7.73,0,0,1,2.35-1.32,9.24,9.24,0,0,1,3.14-.5,8.77,8.77,0,0,1,3,.5,6.83,6.83,0,0,1,2.3,1.4,6.2,6.2,0,0,1,1.46,2.11,6.75,6.75,0,0,1,.51,2.64l-4.65.34A2.42,2.42,0,0,0,131,33a2.59,2.59,0,0,0-1.81.61,1.81,1.81,0,0,0-.68,1.38,1.26,1.26,0,0,0,.76,1.17,11.77,11.77,0,0,0,1.91.74l2.48.75a10,10,0,0,1,2.48,1.13,6.28,6.28,0,0,1,1.91,1.93,6.27,6.27,0,0,1,.25,5.47,5.55,5.55,0,0,1-1.52,1.94,7.4,7.4,0,0,1-2.46,1.33,10,10,0,0,1-3.32.5,9.61,9.61,0,0,1-3.23-.5A6.76,6.76,0,0,1,125.4,48a6.11,6.11,0,0,1-1.49-2.16,7,7,0,0,1-.52-2.74l4.66-.34c0,1.89,1,2.83,3,2.83a3.06,3.06,0,0,0,2.11-.65,2,2,0,0,0,.72-1.51,1.36,1.36,0,0,0-.77-1.23,10.67,10.67,0,0,0-1.91-.8c-.77-.24-1.59-.5-2.48-.76a10.23,10.23,0,0,1-2.47-1.12,6,6,0,0,1-1.92-1.88A5.39,5.39,0,0,1,123.56,34.64Z"/><path class="cls-2" d="M140.68,34.64a5.14,5.14,0,0,1,.52-2.28,5.48,5.48,0,0,1,1.48-1.89A7.56,7.56,0,0,1,145,29.15a9.28,9.28,0,0,1,3.14-.5,8.73,8.73,0,0,1,3,.5,6.73,6.73,0,0,1,2.3,1.4A6.2,6.2,0,0,1,155,32.66a6.76,6.76,0,0,1,.52,2.64l-4.66.34A2.42,2.42,0,0,0,148.16,33a2.59,2.59,0,0,0-1.81.61,1.84,1.84,0,0,0-.68,1.38,1.26,1.26,0,0,0,.76,1.17,11.77,11.77,0,0,0,1.91.74l2.48.75a10,10,0,0,1,2.48,1.13,6.28,6.28,0,0,1,1.91,1.93,6.18,6.18,0,0,1,.25,5.47A5.52,5.52,0,0,1,154,48.1a7.61,7.61,0,0,1-2.46,1.33,10.13,10.13,0,0,1-3.33.5,9.55,9.55,0,0,1-3.22-.5A6.59,6.59,0,0,1,142.53,48a6,6,0,0,1-1.5-2.16,7.19,7.19,0,0,1-.51-2.74l4.65-.34c0,1.89,1,2.83,3,2.83a3,3,0,0,0,2.11-.65,2,2,0,0,0,.72-1.51,1.36,1.36,0,0,0-.77-1.23,10.36,10.36,0,0,0-1.91-.8c-.76-.24-1.59-.5-2.48-.76a10.23,10.23,0,0,1-2.47-1.12,6,6,0,0,1-1.91-1.88A5.39,5.39,0,0,1,140.68,34.64Z"/><path class="cls-2" d="M162.46,45.78l-1.33,4h-5l7.48-21h5l7.48,21h-5l-1.33-4Zm6-4.16-2.32-7-2.33,7Z"/><path class="cls-2" d="M177.59,28.82h4.82V45.11h9.47v4.66H177.59Z"/></g></g></g></g></svg>
