<svg xmlns="http://www.w3.org/2000/svg" viewBox="0 0 111.32 96.54"><defs><style>.cls-1{fill:none;}.cls-2{fill:#003147;}.cls-3{fill: #1F2F79;}</style></defs><title>WS LOGO (8)</title><g id="Layer_2" data-name="Layer 2"><g id="_5-logos" data-name="5-logos"><g id="WS_LOGO" data-name="WS LOGO"><g id="WS_Symbol_final"><rect class="cls-1" width="111.32" height="96.54"/></g><g id="WS-symbol"><path class="cls-2" d="M41.64,34.4V65a10.19,10.19,0,0,1-20.38,0V21.26H28.5a13.13,13.13,0,0,1,13,11.45A11.8,11.8,0,0,1,41.64,34.4Z"/><path class="cls-2" d="M65.85,32.71V65a10.19,10.19,0,0,1-20.38,0V32.71Z"/><path class="cls-2" d="M90.06,32.71V55.43a14,14,0,0,0-20.38,0V32.71Z"/><path class="cls-3" d="M90.06,65A10.19,10.19,0,1,1,79.87,54.85,10.19,10.19,0,0,1,90.06,65Z"/></g></g></g></g></svg>
